<svg xmlns="http://www.w3.org/2000/svg" viewBox="112.37 384.23 3844.7 1970.01" style="background-color: #063270">
  <path d="M1776.52 400.661v1953.577h2180.55V400.661H1776.52Zm68.7 68.7h2043.16v1816.177H1845.22V469.36Z" fill="#ffffff"/>
  <path d="M3425.42 738.7h-676.294V570.78h-259.662v183.553h-213.968l-327.971 529.107h73.307v894.334H3725.35l.1-28.18 3.8-885.687h129.45L3425.42 738.7Zm-28.01 484.938c-2.13-23.538-6.42-47.04-13.65-69.94-11.09-35.166-29.24-68.842-56.61-97.662-19.25-20.312-41.08-35.803-64.2-47.217l149.99-196.35 253.99 307.836-269.52 103.333Zm-64.37 132.153c-8.65 45.551-21.73 87.062-32.65 116.945-4.68 12.797-8.9 23.431-12.23 31.372h-273.205l-149.487 128.82-174.372-128.82h-238.711c-4.29-13.967-10.28-34.988-16.165-60.582-10.315-44.771-20.206-103.51-20.17-161.93-.036-44.523 5.778-88.728 20.347-126.374 7.303-18.859 16.697-36.087 28.643-51.295 11.946-15.207 26.374-28.5 44.204-39.56 24.141-14.959 47.608-24.956 70.295-31.3 22.687-6.347 44.63-9.005 65.651-9.005 28.501 0 55.442 4.927 79.937 12.442 36.725 11.237 67.849 28.43 89.508 42.716a329.804 329.804 0 0 1 24.956 18.08c2.836 2.267 4.927 4.04 6.31 5.21.673.602 1.169 1.028 1.453 1.276l.284.248h.035l14.853 13.754 17.831-9.677c.319-.178 33.357-17.938 81.709-35.485 24.211-8.79 52.287-17.51 81.886-23.963 29.598-6.487 60.728-10.67 90.958-10.67 29 0 57.15 3.864 82.67 12.832 25.56 9.04 48.56 22.971 68.63 44.063 20.81 21.943 34.74 47.466 43.71 75.79 8.97 28.252 12.72 59.27 12.72 90.89-.07 31.691-3.86 63.878-9.6 94.223Zm-1216.957-236.94 180.363-290.998 186.318 186.425c-1.134.673-2.268 1.311-3.403 2.02a225.142 225.142 0 0 0-58.916 52.748c-23.715 30.273-38.958 65.226-48.245 101.525-6.735 26.374-10.422 53.492-11.911 80.54l-244.206-132.26ZM3206.8 989.145c-23.78-5.388-47.99-7.657-71.96-7.657-35.73 0-70.97 4.927-103.826 12.16-49.274 10.846-93.301 26.94-125.276 40.304-3.084 1.276-5.991 2.552-8.862 3.793l9.571-242.469h448.393l-148.04 193.87Zm-660.76-178.272V627.32h146.51v167.92h157.321l-9.217 233.43a437.343 437.343 0 0 0-23.325-13.896c-21.163-11.698-46.651-23.467-75.612-32.365-28.962-8.897-61.504-14.923-96.527-14.923-25.842 0-53.031 3.296-80.894 11.095-9.216 2.588-18.539 5.707-27.898 9.288l-176.889-176.996h186.531Zm-459.805 356.118 274.16 148.46c2.978 54.625 12.443 105.884 21.837 145.906 3.864 16.377 7.692 30.77 11.131 42.786h-315.99v-277.279h-28.252l37.114-59.873Zm-8.862 393.728h595.077l195.712 144.56 167.779-144.56h635.449l-2.41 560.48H2077.373v-560.48Zm1595.547-353.388-1.28 296.812h-322.62a830.915 830.915 0 0 0 16.66-47.784c8.3-26.233 16.63-56.896 22.9-90.005 5-26.303 8.65-54.13 9.97-82.56l306.31-117.44 33.82 41.013-65.76-.036Z" fill="#ffffff"/>
  <path d="M2368.043 2017.546v-152.535h-96.917v41.794h46.58v77.455c-5.672 2.73-17.406 4.892-33.677 4.892-52.783 0-91.528-36.44-91.528-108.508 0-74.124 42.255-109.147 98.441-109.147 26.728 0 44.062 4.75 57.994 11.06l11.202-43.105c-12.549-6.027-37.399-12.478-69.515-12.478-86.991 0-152.607 55.23-153.103 155.513-.248 47.572 14.817 87.984 40.695 113.117 25.771 25.31 60.369 36.76 104.964 36.76 34.03 0 67.529-8.366 84.899-14.818h-.035Zm89.437-287.666v299.613h52.57V1729.88h-52.57Zm149.38 299.577h162.816v-44.204h-110.245V1729.88h-52.571v299.577Zm391.673-177.172h-100.426v-78.59h106.417v-43.886h-158.988v299.613h165.191v-43.85h-112.62v-90.11h100.426v-43.177Zm233.327 94.47 23.75 82.702h55.05l-86.74-299.612h-65.41l-87.27 299.612h53.38l22.76-82.702h84.48Zm-76.54-40.092 20.14-72.386c4.78-18.079 9.32-41.156 13.36-59.802h1.06c4.15 18.433 8.8 41.014 13.9 59.873l20.28 72.315h-68.74Zm232.08 121.766c15.82 2.127 37.69 3.722 64.91 3.722 52.29 0 94.22-12.62 121.24-37.682 26.69-24.707 44.34-64.623 44.34-121.482 0-53.599-16.94-90.359-44.73-113.472-24.68-20.985-58.88-31.69-108.69-31.69-28.78 0-55.87 2.34-77.07 6.238v294.366Zm52.43-256.613c6.77-1.524 16.77-2.694 30.21-2.694 60.47 0 92.87 38.426 92.66 105.034 0 80.47-38.53 116.272-98.02 116.024-8.75 0-18.29-.106-24.85-1.312v-217.052Z" fill="#ffffff"/>
  <path d="M868.77 2337.81s-190.49-158.198-36.19-602.376c154.3-444.177 502.865-1050.339 628.582-1214.276 0 0-307.634 205.408-677.172 685.778-356.49 463.46-574.29 959.323 84.78 1130.873Z" fill="#ffffff"/>
  <path d="M112.37 384.232C230.36 494.99 527.32 851.365 758.2 1199.246l166.89-216.54a3790.85 3790.85 0 0 0-33.44-31.679c-442.46-414.03-779.28-566.795-779.28-566.795Zm1049.994 856.677L999.92 1634.241c113.091 306.066-8.65 446.435-8.65 446.435 475.131-210.803 415.64-525.132 171.094-839.767Z" fill="#ffffff"/>
  <path d="M1076.437 724.233c0-84.75-59.457-153.454-132.797-153.454s-132.79 68.704-132.79 153.454c0 84.75 59.45 153.453 132.79 153.453 73.34 0 132.797-68.703 132.797-153.453Z" fill="#ffffff"/>
</svg>